<?xml version="1.0" encoding="utf-8"?>
<!-- Generator: Adobe Illustrator 25.4.1, SVG Export Plug-In . SVG Version: 6.00 Build 0)  -->
<svg version="1.1" id="Layer_1" xmlns="http://www.w3.org/2000/svg" xmlns:xlink="http://www.w3.org/1999/xlink" x="0px" y="0px"
	 viewBox="0 0 595.3 595.3" style="enable-background:new 0 0 595.3 595.3;" xml:space="preserve">
<style type="text/css">
	.st0{fill:#FFD15C;}
	.st1{fill:#FDDFA1;}
	.st2{fill:#336666;}
	.st3{fill:none;stroke:#000000;stroke-miterlimit:10;}
	.st4{stroke:#000000;stroke-miterlimit:10;}
	.st5{fill:#FFFFFF;}
	.st6{fill:#EA9892;stroke:#EA9892;stroke-miterlimit:10;}
	.st7{fill:#187077;}
</style>
<path class="st0" d="M300.4,67.9C184.2,67.9,90,159.8,90,273.3c0,71.2,37.2,134,93.6,170.8c-0.4-0.7-0.6-1.5-0.6-2.4
	c0.3-5.1,1.4-10,2.9-14.8c-0.2-0.8-0.3-1.7-0.1-2.7c0.9-3.8,2.1-7.5,3.4-11.2c1.4-4.9,2.7-9.6,5-14.2c0.4-0.8,1-1.3,1.7-1.7
	c0-0.2,0-0.3,0-0.5c0.3-3.3,1.4-6,3.5-8.6c0.2-0.3,0.5-0.5,0.7-0.8c-2.5-3.2,0.1-9.3,5-8c9.1-15.3,23.3-26.8,38.5-36.4
	c-1.7-3.1-0.3-7.8,4.1-7.4c2.6,0.2,5.1,0.3,7.7,0.4c3.1-1.8,6.2-3.5,9.3-5.1c1.6-0.9,3.5-0.7,5,0.2c0.1-0.1,0.2-0.3,0.3-0.4
	c-4.8-1.1-4.8-8.3-0.2-9.6c-2.7-2.5-1.5-8.6,3.4-8.9c7.7-0.6,15.2,3.1,19.1,9.9c0.7,1.2,0.8,2.4,0.6,3.5c3.1,0.7,6.3,1,9.6,0.5
	c11.2-1.7,21.4-7.6,31.9-11.6c5.3-2,7.9,5.2,4.4,8.5c0.4,0.4,0.7,0.8,1,1.4c0.3,0.8,0.6,1.5,0.8,2.2c2.7-2.2,7.3-2.1,8.3,2.1
	c0.1,0.5,0.2,1.1,0.3,1.6c2.8-3.2,9.6-2.6,9.1,2.8c-0.2,2.4-0.7,4.6-1.1,7c2.6-0.9,5.5,0.3,6.4,3.3c0.5,1.7,0.5,3.4,0.3,5.1
	c1.6-1.5,3.3-3.1,5-4.6c2.7-2.3,7.5-1.7,8.4,2.2c0.5,2.1,0.6,4.3,0.7,6.5c3.2-1.7,6.8,0.7,7.3,4.4c0.1,1.1,0.2,2.1,0.2,3.1
	c0.6-0.5,1.3-1,2-1.2c2.8-0.8,5.2,1,6.1,3.5c1.2,3.3,1.8,6.7,2.2,10.2c0.1,0.8-0.1,1.6-0.5,2.3c0.1,0.2,0.3,0.4,0.5,0.5
	c0.3,0.2,0.6,0.4,0.9,0.6c6.1,5.3,11.3,13.3,14,20.9c0,0.1,0.1,0.3,0.1,0.4c2.3,1.1,3.1,4,2.4,6.2c0.3,1.5-0.2,2.9-1.3,4
	c0.2,0.8,0.4,1.6,0.5,2.4c0.3,0.3,0.6,0.6,0.9,1c1.1,1.5,2,3.2,2.8,4.9c0.9,1.6,1.7,3.3,2,5.1c0.1,0.7,0.1,1.3,0,1.9
	c1,3,2.2,5.9,2.9,9c0.2,1,0.2,1.8-0.1,2.6c0.3,1,0.7,1.9,1.1,2.9c1,2.5-1.1,5.5-3.5,6.1c-2.8,0.8-5.1-1-6.1-3.5
	c-0.3-0.8-0.6-1.6-0.9-2.4c-1.6-0.3-3-1.4-3.7-3.3c-1.1-0.1-2.3-0.5-3.2-1.4c-0.3-0.3-0.6-0.6-0.9-1c0,1.2-0.5,2.3-1.3,3
	c1.7,3.4,3.1,7,4,10.7c1.3,5.1-4.6,8-8.4,4.9c-3.3-2.8-6.1-6-8.9-9.4c-1.3-0.2-2.5-0.9-3.3-2.3c-1.2-2-2.4-4.1-3.4-6.2
	c-1.1-1.4-2.2-2.8-3.4-4.1c-1.1,0.8-2.6,1.2-4,1c-0.8,0.6-1.9,1-3,1.1c-3.6,0.2-10.3-2.2-15.5-5.7c-1.2,0.2-2.5,0-3.5-0.6
	c-0.3,0.9-0.7,1.7-1,2.6c-1.7,4.4-7.3,4.2-9.2,1.2c-1.4-0.5-2.7-1.6-3.3-3.1c-1.4,3.1-3,6.2-4.8,9.1c-2.5,4-8.9,2.3-9.4-1.7
	c-12.8,5.8-28.3,5.2-43.6,3c-1.7,3.4-3.5,6.8-5.4,10.1c-3.2,5.8-11.1,0.7-8.6-5c1-2.3,2.1-4.6,3.2-6.8c-1-0.2-2-0.4-2.9-0.5
	c-1,1.5-2,2.9-3,4.4c-3.3,4.7-10.2,1.8-9.1-3.9c0.1-0.4,0.1-0.7,0.2-1.1c-1.3-0.9-2.6-1.5-3.9-2c-1.9,2.4-3.8,4.6-6,6.6
	c-2,1.8-4.6,1.8-6.4,0.5c-1,0.5-2.1,1.1-3.1,1.5c-2.1,0.8-4.6-0.6-5.6-2.3c-1.5-2.3-2.1-5-2.2-7.8c-4,3.4-8.5,6-13,7.4
	c-1.1,0.3-2.4,0.2-3.5-0.4c-2.1,2.2-4.2,4.4-6.3,6.5c-2.8,2.7-9.1,1-8.5-3.5c0.1-0.7,0.2-1.4,0.3-2.1c0,0-0.1-0.1-0.1-0.1
	c-1.6,4.6-4,8.9-8,10.4c-0.5,0.2-1,0.2-1.5,0.2c32.6,20.2,71.2,31.9,112.6,31.9c116.2,0,210.4-92,210.4-205.4S416.6,67.9,300.4,67.9
	z M281.3,296.9c-11.1,4.4-16.9-9.7-20-17.5c-1.5-3.6-2.7-7.5-4.5-11c-1.3,0.9-3.1,1.2-4.6,0.8c-1.9,1.9-5.2,2.4-7.2,0.2
	c-16.9-18.8-19.4-43.2-25.4-66.6c-1.6-6.2,8-8.9,9.6-2.7c4.8,18.4,6.8,38.4,17.1,54.6c-0.3-1.3-0.6-2.5-0.9-3.8
	c-1.4-2.1-2.7-4.3-3.8-6.7c-8.8-18.9-10.1-40.4-9.5-60.9c0.2-6.3,9.6-6.4,10-0.5c2.9-1,6.8,0.5,6.7,4.5c-0.4,20.2,1.9,40.3,6.1,60.1
	c9.9,14.7,25.8,25.1,30,43.3C285.5,293.6,283.9,295.9,281.3,296.9z M327.8,129.4c5.4-3.5,10.4,5.1,5,8.6c-4.8,3.2-10.2,4.9-15.5,7.2
	c-5,2.1-8.8,5.1-12.5,9c-7.1,7.4-12.7,16.1-20.6,22.6c-3.9,3.2-9.3,0.2-8.4-4.9c1.6-8.6,7-16.3,13-23.2c-4.2,1.1-6.8-4.1-5.1-7.5
	c7.8-16.3,16.5-35.1,32.7-44.8c4.4-2.7,9.2,2.6,6.8,6.8c-2.3,4.3-5.3,8.1-8,12.1c-1.7,2.5-4.5,2.7-6.6,1.7c-3.8,5-7,10.6-9.9,16.3
	c6.4-3.7,12.3-8.2,18-13.1c6.8-6.7,13.7-13.3,21-19.6c4.8-4.2,11.8,2.6,7.1,7.1c-6.4,6.1-12.8,12.4-19.6,18.3c-3,3-6,6-9,9
	C320.1,133.3,324.1,131.8,327.8,129.4z M380.3,186c-0.9,7.4-2.3,14.7-4,22c1.6,17.1-6.8,36.5-12.3,51.2c-1.4,3.7-5.1,4.2-7.5,2.7
	c-2.3,5.8-5.2,11.4-9.1,16.7c-2.3,3.2-8.2,3.4-9.1-1.2c-3-14.3,5.8-26.7,11.4-39.1c3.3-7.3,4.6-15.2,5.9-23.1
	c-0.4,0.3-0.8,0.5-1.2,0.8c-4.2,2.7-9.5-2.7-6.8-6.8c0.7-1.1,1.4-2.1,2.1-3.2c-2.1-0.1-4.2-1.6-4.7-3.7c-1.6-7.6,1.5-14.9,4.5-22.1
	c-0.1-5.2,0.1-10.5,0-15.9c-0.3,2-0.5,4.1-0.6,6.1c0,1.2-0.1,2.5-0.1,3.7c-0.3,6.4-10.1,6.5-10,0c0-1.4,0.1-2.8,0.2-4.1
	c0.5-11.4,0.5-22.8,0.5-34.1c0-5.3,6.8-6.2,9.2-2.8c2.1-0.6,4.5,0.1,5.5,2.2c3.8,8.5,4.8,17.4,5.1,26.5c0.2,0,0.5-0.1,0.7-0.1
	c11-0.5,13.3,9.6,12.7,20.7C375.6,180.1,380.8,181.4,380.3,186z"/>
<g>
	<path class="st1" d="M263.9,273c4.8,10.2,11.4,19.9,13.5,31c1.5,8,1.2,17.4,7.5,22.5c2.7,2.2,6.2,3.2,9.6,4
		c14.2,3.5,32.3,3.9,40.1-8.5c3.4-5.4,3.9-12.1,4.3-18.5c2.4-37.2,17.5-74.3,19.9-111.5c0.7-11-11.4-22.2-13.7-32.9
		c-1.5-7-4.3-13.7-8.7-19.3c-24.6-31.2-73-9.1-84.9,22.9C240.7,191.9,251.5,246.6,263.9,273z"/>
	<path class="st2" d="M231.7,356.3c-5.2,2.7-11.5,8.3-8.2,13.2c0.8,1.1,2,1.9,3.1,2.6c16.8,9.5,37.5,4.4,56.8,2.7
		c27.1-2.5,54.4,2.1,81.6,1.4c3.7-0.1,7.6-0.4,10.4-2.8c3.4-2.9,3.8-8.3,2-12.4s-5.4-7.1-9-9.7c-19.8-13.5-45.2-15-69.1-15
		c-10.4,0-25-2.6-35.1,0.4C252.8,340,242.3,350.7,231.7,356.3z"/>
	<path class="st2" d="M233.5,420.2c53,0.9,106.1,1.9,159.1,2.8c5.5,0.1,11.2,0.2,16.3,2.4c11.5,4.8,16.6,18.1,19.1,30.3
		c1.3,6.5,2,13.7-1.6,19.2c-5.2,7.8-16.2,8.3-25.6,8c-61.7-2.2-123.4-4.4-185.1-6.6c-21.9-0.8-47,3.7-37.8-25.2
		C186.4,424.3,208.1,419.8,233.5,420.2z"/>
	<g>
		<g>
			<path d="M262.1,194.8c2-0.6,4-1,6-1.2c2-0.2,4-0.3,6.1-0.2c2,0.1,4,0.2,6,0.6c2,0.3,4,0.8,5.9,1.5c-2,0.1-4,0.1-6,0.1l-6-0.1
				C270.1,195.2,266.2,195.1,262.1,194.8z"/>
		</g>
		<path d="M277.9,216.2c0,3.4-1.7,6.2-3.9,6.2s-3.9-2.8-3.9-6.2c0-3.4,1.7-6.2,3.9-6.2S277.9,212.8,277.9,216.2z"/>
		<g>
			<path d="M346,191.2c-1.8,0.4-3.5,0.7-5.3,1c-1.8,0.3-3.5,0.5-5.3,0.8c-1.8,0.2-3.5,0.4-5.3,0.6c-1.8,0.2-3.6,0.3-5.4,0.3
				c1.7-0.8,3.4-1.3,5.1-1.8c1.8-0.5,3.5-0.8,5.3-1c1.8-0.2,3.6-0.3,5.4-0.3C342.4,190.7,344.2,190.8,346,191.2z"/>
		</g>
		<path d="M331.7,216.2c0,3.4,1.7,6.2,3.9,6.2s3.9-2.8,3.9-6.2c0-3.4-1.7-6.2-3.9-6.2S331.7,212.8,331.7,216.2z"/>
		<path class="st3" d="M297.1,205.7c0.2,0.5,8.3,20.1-3.1,28.6c0,0-1,5.1,8.8,7.8"/>
		<path class="st4" d="M288.4,262.6c0,0,17.2,23.9,32.4-4.9l-32.1,5.2"/>
		<path class="st3" d="M177.4,465l9.3-42.9l1.4-6.2c0.1-0.6,0.3-1.3,0.5-1.9c1.2-5.4,3-10.6,5.1-15.5c0.9-2.2,1.9-4.4,3.1-6.6
			c0.2-0.4,0.3-0.7,0.5-1c8-15.2,19.9-28.1,34.8-37.4l35.2-22.1l6.3-4l1-10.5l2.4-25.6"/>
		<path class="st3" d="M328.1,289.4l0.9,9.5l1.7,18.2l1,10.2l41.5,26c9.3,5.8,17.4,13.1,24.2,21.4c0.2,0.2,0.3,0.4,0.5,0.6
			c1.5,1.9,2.9,3.8,4.3,5.8c5,7.3,9,15.3,11.9,23.8l0,0c1.2,3.5,2.2,7.2,3,10.9l0.3,1.6l10.4,47.5"/>
		<path class="st3" d="M370,175.4c0.1,4,0.1,7.9,0.1,11.7c0,0.1,0,0.1,0,0.2c0,0,0,0.1,0,0.1c-0.7,47.4-13.3,74.5-27.5,90
			c-4.8,5.2-9.7,9.1-14.5,12c-1.6,1-3.1,1.8-4.6,2.6c-2.5,1.2-4.8,2.2-7,3c-8.6,3.1-14.8,3.1-14.8,3.1c-2.4,0-4.8-0.2-7-0.5
			c-4.4-0.6-8.5-1.8-12.2-3.5c-1.9-0.8-3.7-1.8-5.5-2.9c-3.4-2.1-6.6-4.6-9.4-7.5c-19.2-19.1-27.4-53.2-31.1-78.1l0,0
			c-0.1-1-0.3-2-0.4-3c-0.8-5.5-1.3-10.4-1.7-14.6c0,0,0,0,0,0c-0.7-7.5-1-12.2-1.2-12.6"/>
		<path class="st3" d="M273.5,327.3c0,0,28.8,18.6,58.2,0"/>
		<path class="st3" d="M269.8,329.7c0,0,32.9,28.9,65.7,0"/>
		<path d="M329,298.9c-16.7,5.6-42.5,14.1-54.5,18l2.4-25.6c5.2,3.2,11.1,5.5,17.7,6.4c2.2,0.3,4.6,0.5,7,0.5c0,0,9.7,0,21.8-6.1
			c1.5-0.8,3.1-1.6,4.6-2.6L329,298.9z"/>
		<path d="M397.4,374.8c-6.8-8.4-14.9-15.6-24.2-21.4l-41.5-26l-1-10.2l-1.7-18.2l-0.9-9.5c4.7-2.9,9.7-6.8,14.5-12
			c14.2-15.5,26.8-42.6,27.5-90c0,0,0-0.1,0-0.1c0,0,0-0.1,0-0.2c0,0-24-28-25.9-51.1c0,0-24.3,48.3-109.9,52.1h0l0,0
			c0.4,4.1,0.9,9.1,1.7,14.6c0.1,1,0.3,2,0.4,3l0,0c3.6,24.9,11.9,59.1,31.1,78.1c2.9,2.9,6,5.4,9.4,7.5l-2.4,25.6l-1,10.5l-6.3,4
			L232,353.3c-14.8,9.3-26.8,22.2-34.8,37.4c-13.4-6.4-24.1-17.7-28.1-36.8c-14.6-69.3,46.8-100.3,40.3-170.5S304.9,45.3,368,125.8
			c0,0,28.2,4.2,24.2,72.9C387.9,272.8,437.4,341,397.4,374.8z"/>
		<path d="M397.9,375.4c-2.1,2.7-4.2,5.4-6.4,8c-1.7,2.1-3.5,4.2-5.2,6.2c-0.8,1-1.7,1.9-2.5,2.9c-0.7,0.8-2,2.8-3,3.4
			c-0.1-0.1-0.1-0.2-0.2-0.3c-0.3-0.4-0.7-0.8-1.1-1.2c-0.8-0.9-1.7-1.8-2.5-2.7c-1.9-2-3.9-4-6-5.9c-1.9-1.8-3.8-3.6-5.8-5.3
			c-1.8-1.6-3.7-3.7-5.9-4.6c-4.6-2-9.5,3.4-12.8,6c-4.3,3.5-8.5,7.2-12.5,11c-0.8,0.8-1.7,2.2-2.7,2.7c-0.2,0.1-0.3,0.2-0.4,0.2
			c0,0-0.1-0.1-0.2-0.1c-0.4-0.1-1.5-1.3-1.8-1.5c-2.3-2-4.7-4-7-6c-2-1.8-4.1-3.5-6.2-5.3c-2-1.7-4-3.8-6.4-5
			c-5.5-2.7-9.9,1.2-13.8,4.7c-4.3,3.9-8.6,7.8-12.9,11.7c-4.1-3.6-8.3-7-12.8-10.2c-2.5-1.8-5.3-4.3-8.4-4.6
			c-2.9-0.3-5,1.3-7.1,3.2c-2.7,2.4-5.4,4.9-8.1,7.3c-1.3,1.2-2.6,2.3-3.9,3.5c-1,0.9-2.8,3.2-4.1,3.7c-0.4,0.1-0.4,0.3-0.4,0.3
			c0-0.1-0.2-0.2-0.7-0.5c-0.5-0.3-1.1-1.1-1.5-1.5c-1.2-1.2-2.5-2.5-3.6-3.9c-2.4-2.7-4.6-5.6-6.6-8.5c-1-1.4-3.1-2.4-4.8-1.2
			c-6.4,4.5-12.4,9.4-18.1,14.7c-2-1.5-4-3.1-5.9-4.8c-1.1,2.1-2.1,4.3-3.1,6.6c2.4,2,4.9,4,7.5,5.8c1.2,0.9,3.2,0.5,4.2-0.5
			c5.1-5,10.6-9.6,16.4-13.8c3.3,4.6,7,9.2,11.2,12.8c5.9,5.1,11-1,15.4-5c2.7-2.4,5.4-4.9,8.1-7.4c0.9-0.9,2.8-3.3,4-3.6
			c1.1-0.3,2.4,0.9,3.4,1.6c5.8,4,11.3,8.3,16.5,13.1c1.4,1.3,3.5,1.3,5,0c4.5-4.1,9.1-8.2,13.6-12.3c1.7-1.5,3.4-3.7,5.5-4.7
			c2.5-1.2,5.2,2.3,7,3.9c4.6,3.9,9.1,7.8,13.7,11.7c1.8,1.5,3.6,3.2,6.1,3.2c2.6,0,4.3-1.6,6-3.3c3.9-4,8-7.7,12.3-11.2
			c2.1-1.7,4.2-3.5,6.5-5.1c0.4-0.2,0.8-0.6,1.2-0.9c0.1,0.1,0.2,0.2,0.4,0.4c0.9,1,2.1,1.8,3.2,2.7c4.2,3.7,8.2,7.6,12.1,11.6
			c3.1,3.2,6.4,7.7,11.3,4.7c2.3-1.4,4-4,5.7-6c2.1-2.5,4.2-5,6.3-7.5c2.1-2.5,4.1-5,6-7.6C400.8,379.2,399.4,377.3,397.9,375.4z
			 M380.9,396c0.1,0.1,0.3,0.3,0.3,0.3C381.2,396.3,381.1,396.2,380.9,396z"/>
		<path d="M417.1,415.9c-0.8-3.7-1.8-7.3-3-10.9l0,0c-2.2-2-4.4-3.9-6.5-5.8c-1.9-1.6-4.1-1.1-5.5,0.7c-3.4,4.6-6.9,9-10.5,13.5
			c-1.7,2.1-3.5,4.2-5.2,6.3c-0.8,1-1.7,1.9-2.5,2.9c-0.7,0.8-2,2.8-3,3.4c-0.1-0.1-0.1-0.2-0.2-0.3c-0.3-0.4-0.7-0.8-1.1-1.1
			c-0.8-0.9-1.7-1.8-2.5-2.7c-1.9-2-3.9-4-6-5.9c-1.9-1.8-3.8-3.6-5.8-5.3c-1.8-1.5-3.7-3.7-5.9-4.6c-4.6-1.9-9.5,3.4-12.8,6
			c-4.3,3.5-8.5,7.1-12.5,11c-0.8,0.8-1.7,2.2-2.7,2.7c-0.2,0.1-0.3,0.2-0.4,0.2c0,0-0.1-0.1-0.2-0.1c-0.4-0.1-1.5-1.3-1.8-1.5
			c-2.3-2-4.7-4-7-6c-2-1.8-4.1-3.5-6.2-5.3c-2-1.7-4-3.8-6.4-5c-5.5-2.7-9.9,1.2-13.8,4.7c-4.3,3.9-8.6,7.8-12.9,11.7
			c-4.1-3.6-8.3-7-12.8-10.2c-2.5-1.8-5.3-4.3-8.4-4.6c-2.9-0.3-5,1.3-7.1,3.2c-2.7,2.4-5.4,4.9-8.1,7.3c-1.3,1.2-2.6,2.3-3.9,3.5
			c-1,0.9-2.8,3.2-4.1,3.7c-0.4,0.1-0.4,0.3-0.4,0.3c0-0.1-0.2-0.2-0.7-0.5c-0.5-0.3-1.1-1.1-1.5-1.5c-1.2-1.3-2.5-2.6-3.6-3.9
			c-2.4-2.7-4.6-5.6-6.6-8.5c-1-1.4-3.1-2.4-4.8-1.2c-6.4,4.5-12.4,9.4-18.1,14.7c-5-3.8-9.8-8-14.1-12.6c-0.2,0.6-0.3,1.3-0.5,1.9
			l-1.4,6.2c4.5,4.4,9.3,8.4,14.4,12.1c1.2,0.9,3.2,0.5,4.2-0.5c5.1-5,10.6-9.6,16.4-13.8c3.3,4.6,7,9.2,11.2,12.8
			c5.9,5.1,11-1,15.4-5c2.7-2.4,5.4-4.9,8.1-7.3c0.9-0.9,2.8-3.3,4-3.6c1.1-0.3,2.4,0.9,3.4,1.6c5.8,4,11.3,8.3,16.5,13.1
			c1.4,1.3,3.5,1.3,5,0c4.5-4.1,9.1-8.2,13.6-12.3c1.7-1.5,3.4-3.7,5.5-4.7c2.5-1.2,5.2,2.3,7,3.9c4.6,3.9,9.1,7.8,13.7,11.7
			c1.8,1.5,3.6,3.2,6.1,3.2c2.6,0,4.3-1.6,6-3.3c3.9-3.9,8-7.7,12.3-11.2c2.1-1.7,4.2-3.5,6.5-5.1c0.4-0.3,0.8-0.6,1.2-0.9l0.4,0.4
			c0.9,1,2.1,1.8,3.2,2.7c4.2,3.7,8.2,7.6,12.1,11.6c3.1,3.2,6.4,7.7,11.3,4.7c2.3-1.4,4-4,5.7-6c2.1-2.5,4.2-5,6.3-7.5
			c3.2-3.9,6.3-7.9,9.4-11.9c4,3.5,8,7.1,11.9,10.7L417.1,415.9z M380.9,425.9C381.2,426.1,381.5,426.7,380.9,425.9L380.9,425.9z"/>
	</g>
	<g>
		<g>
			<path class="st5" d="M331.7,127.9c-3.4,3.7-7.1,7.1-10.9,10.3c-3.8,3.2-7.9,6.2-12.1,9c-4.2,2.7-8.6,5.1-13.2,7.2
				c-4.6,2-9.4,3.6-14.4,4.4c2.4-0.7,4.8-1.3,7.1-2.3c2.4-0.8,4.6-1.9,6.9-2.9c4.5-2.2,8.8-4.6,13-7.4c4.2-2.7,8.2-5.7,12.1-8.8
				c2-1.5,3.9-3.1,5.8-4.8C328,131.3,329.9,129.6,331.7,127.9z"/>
		</g>
		<g>
			<path class="st5" d="M328.1,118.3c-2.1,2-4.4,3.9-6.7,5.6c-2.3,1.8-4.7,3.5-7.1,5.1c-2.5,1.6-5,3.1-7.6,4.3
				c-2.6,1.2-5.4,2.4-8.2,2.9c0.7-0.3,1.4-0.5,2-0.8c0.7-0.3,1.3-0.6,2-0.9c0.7-0.3,1.3-0.6,2-0.9c0.6-0.3,1.3-0.6,1.9-1
				c2.5-1.4,5-2.9,7.5-4.4c2.5-1.5,4.8-3.2,7.2-4.8c1.2-0.8,2.4-1.7,3.6-2.5L328.1,118.3z"/>
		</g>
		<g>
			<path class="st5" d="M316.7,107.5c-0.8,1.3-1.8,2.4-3,3.5c-1.1,1.1-2.3,2-3.6,2.8c-0.6,0.4-1.3,0.8-2,1.1
				c-0.7,0.3-1.4,0.7-2.1,0.9c-1.4,0.6-2.9,0.9-4.4,1.1c1.4-0.6,2.8-1.2,4.1-1.8c1.3-0.7,2.6-1.4,3.9-2.2c1.3-0.8,2.5-1.7,3.7-2.6
				C314.5,109.5,315.6,108.6,316.7,107.5z"/>
		</g>
	</g>
	<ellipse class="st6" cx="268.7" cy="237.2" rx="6.7" ry="6.6"/>
	<ellipse class="st6" cx="333.8" cy="237" rx="6.7" ry="6.6"/>
</g>
<path class="st7" d="M177.3,363.9"/>
<circle class="st3" cx="329.7" cy="216.6" r="19.1"/>
<ellipse class="st3" cx="272.5" cy="219.3" rx="19.1" ry="18"/>
<path class="st3" d="M291.5,219.3c0,0,8.5-5.4,18.4-0.3"/>
</svg>
