<?xml version="1.0" encoding="utf-8"?>
<!-- Generator: Adobe Illustrator 25.4.1, SVG Export Plug-In . SVG Version: 6.00 Build 0)  -->
<svg version="1.1" id="Layer_1" xmlns="http://www.w3.org/2000/svg" xmlns:xlink="http://www.w3.org/1999/xlink" x="0px" y="0px"
	 viewBox="0 0 595.28 595.28" style="enable-background:new 0 0 595.28 595.28;" xml:space="preserve">
<path style="fill:#C44436;" d="M300.44,67.89c-116.2,0-210.4,91.95-210.4,205.37c0,71.23,37.15,133.97,93.57,170.81
	c-0.41-0.72-0.63-1.53-0.58-2.36c0.33-5.11,1.41-10,2.92-14.77c-0.24-0.79-0.29-1.68-0.06-2.66c0.89-3.8,2.05-7.52,3.37-11.17
	c1.36-4.85,2.67-9.65,4.99-14.16c0.39-0.76,1-1.33,1.69-1.73c0-0.17-0.01-0.33,0.01-0.51c0.34-3.33,1.35-6.03,3.48-8.61
	c0.23-0.28,0.48-0.55,0.72-0.82c-2.52-3.24,0.06-9.27,4.97-8.03c9.08-15.29,23.3-26.82,38.53-36.42c-1.7-3.07-0.34-7.75,4.1-7.44
	c2.56,0.18,5.11,0.32,7.67,0.43c3.1-1.76,6.21-3.46,9.27-5.12c1.63-0.88,3.51-0.66,5.01,0.19c0.1-0.14,0.22-0.28,0.34-0.42
	c-4.78-1.09-4.82-8.32-0.17-9.64c-2.69-2.51-1.54-8.56,3.38-8.93c7.71-0.58,15.2,3.14,19.08,9.86c0.68,1.17,0.82,2.39,0.56,3.5
	c3.13,0.66,6.29,0.97,9.56,0.47c11.18-1.68,21.44-7.63,31.88-11.64c5.31-2.04,7.94,5.23,4.42,8.55c0.38,0.37,0.71,0.84,0.97,1.43
	c0.32,0.75,0.56,1.47,0.75,2.18c2.69-2.25,7.29-2.07,8.27,2.08c0.13,0.54,0.22,1.07,0.29,1.6c2.75-3.18,9.64-2.56,9.08,2.79
	c-0.24,2.35-0.7,4.65-1.15,6.96c2.6-0.86,5.52,0.26,6.42,3.28c0.49,1.66,0.45,3.39,0.28,5.12c1.65-1.55,3.28-3.12,4.98-4.6
	c2.67-2.32,7.48-1.7,8.36,2.21c0.48,2.15,0.64,4.3,0.68,6.45c3.2-1.73,6.84,0.71,7.33,4.41c0.14,1.06,0.17,2.1,0.16,3.14
	c0.59-0.54,1.28-0.95,2.02-1.16c2.75-0.76,5.23,0.96,6.15,3.49c1.2,3.31,1.81,6.7,2.22,10.18c0.1,0.81-0.1,1.58-0.47,2.26
	c0.15,0.18,0.31,0.35,0.46,0.53c0.32,0.18,0.63,0.39,0.93,0.65c6.13,5.29,11.33,13.33,14.05,20.93c0.05,0.13,0.07,0.26,0.11,0.38
	c2.3,1.11,3.09,3.95,2.35,6.25c0.31,1.48-0.25,2.9-1.27,3.97c0.2,0.78,0.36,1.57,0.49,2.39c0.31,0.28,0.6,0.59,0.87,0.97
	c1.11,1.52,2.04,3.18,2.75,4.92c0.89,1.61,1.66,3.27,2.01,5.13c0.13,0.68,0.12,1.32,0.01,1.91c1.05,2.97,2.21,5.9,2.88,8.99
	c0.21,0.96,0.16,1.83-0.08,2.6c0.34,0.95,0.7,1.9,1.1,2.85c1.05,2.51-1.15,5.51-3.49,6.15c-2.84,0.78-5.11-1-6.15-3.49
	c-0.33-0.78-0.6-1.6-0.87-2.43c-1.6-0.31-3.05-1.36-3.71-3.31c-1.14-0.07-2.26-0.51-3.16-1.41c-0.32-0.32-0.61-0.65-0.91-0.98
	c0,1.24-0.49,2.26-1.27,3c1.74,3.4,3.13,6.95,4.05,10.67c1.26,5.09-4.63,8.01-8.36,4.86c-3.3-2.78-6.15-6.04-8.86-9.42
	c-1.27-0.19-2.47-0.91-3.33-2.33c-1.22-2.03-2.35-4.12-3.41-6.25c-1.12-1.4-2.25-2.78-3.43-4.11c-1.08,0.8-2.56,1.18-4.01,1.03
	c-0.83,0.61-1.85,1-2.96,1.06c-3.6,0.21-10.28-2.16-15.54-5.7c-1.21,0.19-2.46,0-3.47-0.57c-0.33,0.87-0.66,1.74-1,2.6
	c-1.73,4.38-7.33,4.25-9.24,1.24c-1.43-0.52-2.69-1.6-3.28-3.08c-1.43,3.12-2.97,6.17-4.75,9.08c-2.45,4-8.94,2.3-9.44-1.68
	c-12.8,5.81-28.28,5.25-43.59,3.02c-1.72,3.39-3.49,6.76-5.37,10.07c-3.25,5.75-11.14,0.69-8.63-5.05c1-2.3,2.08-4.57,3.19-6.83
	c-0.98-0.18-1.96-0.36-2.94-0.55c-1,1.47-2.01,2.92-3.02,4.37c-3.31,4.74-10.18,1.76-9.14-3.85c0.07-0.37,0.15-0.73,0.23-1.1
	c-1.26-0.88-2.58-1.5-3.95-1.97c-1.85,2.38-3.84,4.64-6.04,6.6c-1.96,1.75-4.59,1.8-6.44,0.47c-1.03,0.55-2.07,1.06-3.15,1.49
	c-2.08,0.83-4.55-0.6-5.65-2.3c-1.5-2.32-2.09-5.01-2.17-7.77c-4.03,3.36-8.46,6.02-12.99,7.39c-1.1,0.33-2.41,0.17-3.54-0.35
	c-2.05,2.23-4.16,4.39-6.34,6.45c-2.84,2.68-9.12,1.04-8.54-3.54c0.09-0.7,0.2-1.4,0.32-2.1c-0.02-0.03-0.05-0.06-0.07-0.1
	c-1.64,4.62-4.02,8.92-8.01,10.37c-0.5,0.18-1.01,0.24-1.53,0.22c32.56,20.18,71.19,31.87,112.61,31.87
	c116.2,0,210.4-91.95,210.4-205.37S416.65,67.89,300.44,67.89z M281.3,296.88c-11.08,4.35-16.87-9.67-20.05-17.5
	c-1.45-3.57-2.66-7.49-4.52-10.95c-1.34,0.91-3.1,1.22-4.63,0.77c-1.88,1.93-5.21,2.43-7.21,0.21
	c-16.89-18.75-19.35-43.2-25.45-66.64c-1.62-6.24,8.02-8.88,9.64-2.66c4.79,18.41,6.83,38.45,17.12,54.62
	c-0.29-1.27-0.59-2.54-0.86-3.81c-1.42-2.13-2.7-4.34-3.78-6.66c-8.75-18.86-10.11-40.43-9.54-60.93c0.17-6.26,9.64-6.43,9.99-0.5
	c2.95-1,6.81,0.51,6.72,4.53c-0.44,20.24,1.86,40.33,6.09,60.07c9.89,14.67,25.75,25.13,29.97,43.3
	C285.46,293.6,283.9,295.86,281.3,296.88z M327.79,129.35c5.4-3.54,10.41,5.12,5.05,8.63c-4.83,3.17-10.23,4.91-15.5,7.18
	c-4.95,2.13-8.81,5.12-12.51,8.99c-7.08,7.4-12.7,16.08-20.64,22.65c-3.93,3.25-9.27,0.17-8.36-4.86
	c1.56-8.61,6.95-16.33,13.03-23.24c-4.18,1.05-6.78-4.06-5.15-7.48c7.79-16.34,16.53-35.07,32.67-44.75
	c4.42-2.65,9.16,2.55,6.84,6.84c-2.31,4.28-5.31,8.08-8.05,12.08c-1.7,2.49-4.53,2.69-6.65,1.66c-3.83,4.98-7.04,10.6-9.92,16.26
	c6.36-3.68,12.3-8.19,17.97-13.06c6.79-6.72,13.7-13.29,20.95-19.64c4.8-4.2,11.77,2.59,7.07,7.07
	c-6.36,6.06-12.8,12.37-19.56,18.29c-3.02,2.97-6.01,5.97-9,9C320.06,133.33,324.1,131.76,327.79,129.35z M380.28,186.01
	c-0.88,7.43-2.31,14.73-3.99,21.98c1.57,17.08-6.8,36.54-12.3,51.16c-1.4,3.71-5.11,4.25-7.53,2.66
	c-2.28,5.81-5.22,11.38-9.09,16.66c-2.32,3.17-8.16,3.43-9.14-1.19c-3.02-14.31,5.8-26.68,11.4-39.1
	c3.31-7.34,4.61-15.21,5.87-23.11c-0.4,0.26-0.8,0.51-1.2,0.77c-4.17,2.7-9.53-2.68-6.84-6.84c0.68-1.06,1.41-2.13,2.15-3.2
	c-2.11-0.12-4.23-1.59-4.67-3.68c-1.61-7.64,1.49-14.95,4.46-22.15c-0.11-5.16,0.08-10.51,0.05-15.85
	c-0.26,2.04-0.46,4.08-0.58,6.14c-0.05,1.23-0.08,2.46-0.14,3.69c-0.32,6.4-10.09,6.47-10,0c0.02-1.38,0.08-2.76,0.16-4.13
	c0.46-11.37,0.51-22.75,0.51-34.12c0-5.33,6.84-6.24,9.21-2.75c2.11-0.56,4.5,0.05,5.48,2.24c3.78,8.48,4.78,17.41,5.07,26.46
	c0.22-0.04,0.45-0.07,0.68-0.08c11.03-0.46,13.32,9.61,12.66,20.73C375.63,180.13,380.83,181.35,380.28,186.01z"/>
<g>
	<path style="fill:#FDDFA1;" d="M263.86,272.96c4.8,10.24,11.37,19.89,13.52,30.99c1.55,7.97,1.24,17.38,7.5,22.54
		c2.69,2.22,6.18,3.19,9.57,4.02c14.22,3.47,32.3,3.92,40.11-8.46c3.42-5.42,3.92-12.11,4.33-18.5
		c2.38-37.16,17.51-74.33,19.89-111.49c0.7-11-11.35-22.18-13.7-32.95c-1.52-6.96-4.33-13.7-8.74-19.29
		c-24.65-31.25-73.04-9.06-84.87,22.95C240.7,191.87,251.51,246.61,263.86,272.96z"/>
	<path style="fill:#187077;" d="M231.71,356.25c-5.22,2.73-11.53,8.3-8.21,13.16c0.77,1.13,1.96,1.9,3.15,2.57
		c16.8,9.45,37.55,4.44,56.75,2.67c27.1-2.5,54.37,2.06,81.59,1.41c3.67-0.09,7.64-0.39,10.41-2.8c3.37-2.93,3.79-8.27,2-12.36
		c-1.79-4.09-5.35-7.14-9.04-9.66c-19.8-13.48-45.17-15.03-69.12-15.03c-10.44,0-24.98-2.56-35.08,0.41
		C252.81,339.97,242.28,350.73,231.71,356.25z"/>
	<path style="fill:#187077;" d="M233.47,420.22c53.04,0.93,106.09,1.87,159.13,2.8c5.54,0.1,11.23,0.23,16.34,2.37
		c11.47,4.81,16.63,18.1,19.08,30.29c1.3,6.47,2.04,13.7-1.61,19.19c-5.17,7.79-16.23,8.28-25.58,7.95
		c-61.7-2.22-123.39-4.43-185.09-6.65c-21.95-0.79-46.97,3.68-37.84-25.16C186.35,424.28,208.12,419.78,233.47,420.22z"/>
	<g>
		<g>
			<path d="M262.12,194.77c1.95-0.63,3.97-0.96,5.98-1.18c2.02-0.21,4.05-0.3,6.07-0.24c2.03,0.05,4.05,0.24,6.05,0.57
				c2,0.31,3.99,0.8,5.91,1.51c-2.05,0.11-4.05,0.06-6.04,0.05l-5.97-0.12C270.14,195.22,266.18,195.14,262.12,194.77z"/>
		</g>
		<path d="M277.87,216.18c0,3.43-1.74,6.21-3.9,6.21s-3.9-2.78-3.9-6.21c0-3.43,1.74-6.21,3.9-6.21S277.87,212.75,277.87,216.18z"/>
		<g>
			<path d="M346.03,192.36c-1.82,0.22-3.6,0.34-5.38,0.43c-1.78,0.09-3.55,0.16-5.32,0.18c-1.77,0.05-3.55,0.02-5.33-0.01
				c-1.78-0.04-3.57-0.1-5.4-0.34c1.74-0.59,3.51-0.96,5.3-1.21c1.79-0.26,3.59-0.4,5.39-0.43c1.8-0.03,3.61,0.06,5.41,0.26
				C342.49,191.45,344.29,191.76,346.03,192.36z"/>
		</g>
		<path d="M331.68,216.18c0,3.43,1.74,6.21,3.9,6.21s3.9-2.78,3.9-6.21c0-3.43-1.74-6.21-3.9-6.21S331.68,212.75,331.68,216.18z"/>
		<path style="fill:none;stroke:#000000;stroke-miterlimit:10;" d="M297.09,205.74c0.24,0.53,8.29,20.14-3.07,28.62
			c0,0-0.96,5.08,8.82,7.84"/>
		<path style="fill:none;stroke:#000000;stroke-miterlimit:10;" d="M292.26,257.49c0,0,11.92,3.95,21.16,0.2"/>
		<path style="fill:none;stroke:#000000;stroke-miterlimit:10;" d="M177.39,464.99l9.33-42.94l1.36-6.2
			c0.15-0.64,0.28-1.27,0.47-1.91c1.25-5.35,2.97-10.56,5.1-15.55c0.93-2.23,1.95-4.42,3.06-6.56c0.17-0.36,0.34-0.7,0.53-1.04
			c8.01-15.19,19.95-28.15,34.76-37.43l35.24-22.09l6.29-3.95l1-10.47l2.42-25.58"/>
		<path style="fill:none;stroke:#000000;stroke-miterlimit:10;" d="M328.12,289.38l0.89,9.48l1.74,18.25l0.96,10.2l41.53,26.05
			c9.28,5.82,17.44,13.07,24.2,21.44c0.17,0.21,0.32,0.4,0.47,0.62c1.51,1.85,2.93,3.78,4.27,5.76c5.03,7.31,9.05,15.32,11.94,23.82
			l0.02,0.02c1.21,3.55,2.21,7.16,3.02,10.86l0.34,1.59l10.35,47.55"/>
		<path style="fill:none;stroke:#000000;stroke-miterlimit:10;" d="M370.03,175.36c0.11,4.02,0.13,7.9,0.06,11.66
			c0,0.08,0.02,0.15,0.02,0.19c0,0.02,0,0.06-0.02,0.08c-0.7,47.4-13.32,74.53-27.51,90.03c-4.78,5.23-9.73,9.11-14.47,12.05
			c-1.57,0.98-3.12,1.83-4.63,2.59c-2.46,1.25-4.82,2.23-7.01,3.02c-8.63,3.12-14.76,3.12-14.76,3.12c-2.44,0-4.8-0.17-7.05-0.49
			c-4.4-0.62-8.46-1.78-12.22-3.48c-1.91-0.83-3.74-1.81-5.5-2.89c-3.42-2.1-6.56-4.63-9.43-7.5
			c-19.25-19.08-27.45-53.24-31.1-78.14l-0.02-0.02c-0.15-1.02-0.3-2.04-0.42-3.02c-0.76-5.48-1.27-10.43-1.68-14.55
			c0-0.02,0-0.02,0-0.04c-0.72-7.46-0.96-12.24-1.17-12.62"/>
		<path style="fill:none;stroke:#000000;stroke-miterlimit:10;" d="M273.51,327.31c0,0,28.77,18.63,58.19,0"/>
		<path style="fill:none;stroke:#000000;stroke-miterlimit:10;" d="M269.76,329.67c0,0,32.88,28.94,65.69,0"/>
		<path d="M329.01,298.87c-16.68,5.65-42.55,14.09-54.49,17.97l2.42-25.58c5.25,3.23,11.11,5.46,17.72,6.37
			c2.25,0.32,4.61,0.49,7.05,0.49c0,0,9.69,0,21.78-6.14c1.51-0.76,3.06-1.61,4.63-2.59L329.01,298.87z"/>
		<path d="M397.44,374.79c-6.76-8.37-14.91-15.61-24.2-21.44l-41.53-26.05l-0.96-10.2l-1.74-18.25l-0.89-9.48
			c4.74-2.93,9.69-6.82,14.47-12.05c14.19-15.51,26.81-42.64,27.51-90.03c0.02-0.02,0.02-0.06,0.02-0.08c0-0.04-0.02-0.11-0.02-0.19
			c0,0-23.96-28.04-25.92-51.11c0,0-24.3,48.29-109.9,52.07h-0.02l0.02,0.04c0.4,4.12,0.91,9.07,1.68,14.55
			c0.13,0.98,0.28,2,0.42,3.02l0.02,0.02c3.65,24.9,11.85,59.06,31.1,78.14c2.87,2.87,6.01,5.4,9.43,7.5l-2.42,25.58l-1,10.47
			l-6.29,3.95l-35.24,22.09c-14.81,9.28-26.75,22.24-34.76,37.43c-13.38-6.37-24.07-17.7-28.11-36.8
			c-14.62-69.32,46.78-100.34,40.28-170.49s95.5-138.19,158.66-57.65c0,0,28.23,4.25,24.18,72.89
			C387.86,272.83,437.38,340.96,397.44,374.79z"/>
		<path d="M397.91,375.4c-2.08,2.7-4.21,5.35-6.35,7.99c-1.74,2.1-3.48,4.19-5.25,6.25c-0.83,0.98-1.66,1.93-2.51,2.89
			c-0.7,0.81-1.95,2.83-2.95,3.38c-0.08-0.09-0.15-0.17-0.23-0.3c-0.3-0.4-0.72-0.79-1.06-1.17c-0.83-0.89-1.68-1.78-2.53-2.66
			c-1.93-2.02-3.91-3.99-5.95-5.93c-1.89-1.81-3.82-3.57-5.8-5.29c-1.81-1.57-3.72-3.68-5.93-4.61c-4.65-1.95-9.48,3.42-12.77,6.03
			c-4.33,3.48-8.5,7.16-12.45,11.05c-0.81,0.79-1.68,2.17-2.66,2.66c-0.21,0.11-0.32,0.19-0.36,0.23c-0.02-0.04-0.08-0.11-0.25-0.15
			c-0.42-0.13-1.53-1.32-1.76-1.51c-2.34-2.02-4.7-4.04-7.05-6.05c-2.04-1.76-4.1-3.53-6.16-5.29c-2.02-1.72-4.02-3.8-6.44-4.97
			c-5.5-2.7-9.92,1.19-13.79,4.7c-4.31,3.91-8.6,7.8-12.92,11.68c-4.1-3.57-8.33-7.01-12.77-10.18c-2.49-1.76-5.27-4.27-8.41-4.59
			c-2.89-0.3-5.03,1.34-7.1,3.19c-2.7,2.42-5.37,4.89-8.07,7.33c-1.27,1.17-2.55,2.32-3.85,3.48c-1.02,0.93-2.83,3.23-4.14,3.74
			c-0.38,0.15-0.45,0.28-0.45,0.34c-0.04-0.06-0.19-0.19-0.7-0.47c-0.53-0.28-1.08-1.06-1.51-1.51c-1.25-1.25-2.46-2.55-3.63-3.89
			c-2.38-2.72-4.57-5.57-6.63-8.54c-1-1.44-3.14-2.4-4.78-1.25c-6.37,4.46-12.41,9.37-18.08,14.66c-2.04-1.53-4.02-3.14-5.93-4.82
			c-1.1,2.15-2.12,4.33-3.06,6.56c2.4,2.04,4.89,3.99,7.46,5.84c1.25,0.91,3.19,0.45,4.23-0.55c5.14-4.97,10.6-9.56,16.36-13.79
			c3.31,4.61,6.99,9.16,11.24,12.79c5.95,5.12,11.03-0.96,15.42-4.95c2.7-2.44,5.4-4.89,8.09-7.35c0.93-0.85,2.83-3.27,3.99-3.61
			c1.15-0.3,2.38,0.91,3.44,1.64c5.8,3.95,11.26,8.33,16.46,13.07c1.44,1.32,3.48,1.32,4.95,0c4.53-4.12,9.07-8.22,13.6-12.34
			c1.7-1.53,3.44-3.7,5.5-4.72c2.51-1.23,5.25,2.34,6.99,3.85c4.57,3.89,9.09,7.82,13.66,11.71c1.81,1.53,3.63,3.19,6.14,3.23
			c2.59,0.04,4.27-1.59,5.99-3.31c3.91-3.95,7.99-7.71,12.28-11.24c2.1-1.74,4.25-3.46,6.48-5.08c0.36-0.25,0.76-0.62,1.19-0.87
			c0.11,0.11,0.25,0.23,0.42,0.43c0.93,1,2.15,1.83,3.19,2.74c4.19,3.7,8.22,7.56,12.09,11.62c3.06,3.21,6.39,7.71,11.26,4.72
			c2.29-1.4,4.02-3.95,5.74-5.95c2.15-2.49,4.25-4.97,6.33-7.5c2.06-2.51,4.06-5.03,6.03-7.58
			C400.84,379.18,399.41,377.25,397.91,375.4z M380.89,395.99c0.15,0.08,0.32,0.28,0.32,0.34
			C381.17,396.29,381.06,396.2,380.89,395.99z"/>
		<path d="M417.15,415.85c-0.81-3.7-1.81-7.31-3.02-10.86l-0.02-0.02c-2.17-1.95-4.36-3.89-6.54-5.82c-1.85-1.61-4.1-1.15-5.5,0.7
			c-3.4,4.57-6.93,9.05-10.52,13.45c-1.74,2.1-3.48,4.19-5.25,6.27c-0.83,0.96-1.66,1.91-2.51,2.87c-0.7,0.81-1.95,2.83-2.95,3.38
			c-0.08-0.08-0.15-0.17-0.23-0.3c-0.3-0.4-0.72-0.79-1.06-1.15c-0.83-0.91-1.68-1.81-2.53-2.68c-1.93-2.02-3.91-3.99-5.95-5.93
			c-1.89-1.81-3.82-3.57-5.8-5.29c-1.81-1.55-3.72-3.68-5.93-4.61c-4.65-1.93-9.48,3.42-12.77,6.05c-4.33,3.46-8.5,7.14-12.45,11.03
			c-0.81,0.79-1.68,2.17-2.66,2.68c-0.21,0.11-0.32,0.17-0.36,0.21c-0.02-0.04-0.08-0.08-0.25-0.15c-0.42-0.13-1.53-1.3-1.76-1.51
			c-2.34-2.02-4.7-4.04-7.05-6.05c-2.04-1.76-4.1-3.53-6.16-5.29c-2.02-1.72-4.02-3.8-6.44-4.97c-5.5-2.7-9.92,1.19-13.79,4.72
			c-4.31,3.89-8.6,7.78-12.92,11.68c-4.1-3.59-8.33-7.03-12.77-10.2c-2.49-1.76-5.27-4.27-8.41-4.59c-2.89-0.3-5.03,1.34-7.1,3.19
			c-2.7,2.42-5.37,4.89-8.07,7.33c-1.27,1.17-2.55,2.32-3.85,3.48c-1.02,0.93-2.83,3.25-4.14,3.74c-0.38,0.15-0.45,0.28-0.45,0.34
			c-0.04-0.06-0.19-0.19-0.7-0.47c-0.53-0.28-1.08-1.06-1.51-1.49c-1.25-1.27-2.46-2.57-3.63-3.91c-2.38-2.72-4.57-5.57-6.63-8.54
			c-1-1.44-3.14-2.4-4.78-1.25c-6.37,4.48-12.41,9.37-18.08,14.68c-5.03-3.82-9.75-8.05-14.09-12.64c-0.19,0.64-0.32,1.27-0.47,1.91
			l-1.36,6.2c4.46,4.38,9.28,8.41,14.38,12.09c1.25,0.91,3.19,0.47,4.23-0.55c5.14-4.97,10.6-9.56,16.36-13.79
			c3.31,4.61,6.99,9.16,11.24,12.81c5.95,5.1,11.03-0.98,15.42-4.97c2.7-2.44,5.4-4.89,8.09-7.33c0.93-0.85,2.83-3.29,3.99-3.61
			c1.15-0.32,2.38,0.89,3.44,1.61c5.8,3.95,11.26,8.33,16.46,13.07c1.44,1.32,3.48,1.32,4.95,0c4.53-4.12,9.07-8.22,13.6-12.32
			c1.7-1.55,3.44-3.7,5.5-4.74c2.51-1.23,5.25,2.34,6.99,3.85c4.57,3.91,9.09,7.82,13.66,11.71c1.81,1.53,3.63,3.19,6.14,3.23
			c2.59,0.04,4.27-1.57,5.99-3.31c3.91-3.93,7.99-7.69,12.28-11.24c2.1-1.74,4.25-3.46,6.48-5.08c0.36-0.26,0.76-0.62,1.19-0.87
			l0.42,0.43c0.93,1,2.15,1.83,3.19,2.74c4.19,3.7,8.22,7.56,12.09,11.62c3.06,3.23,6.39,7.71,11.26,4.74
			c2.29-1.4,4.02-3.97,5.74-5.97c2.15-2.46,4.25-4.97,6.33-7.5c3.21-3.91,6.33-7.9,9.41-11.92c3.99,3.55,7.99,7.12,11.94,10.71
			L417.15,415.85z M380.89,425.9C381.17,426.05,381.51,426.67,380.89,425.9L380.89,425.9z"/>
	</g>
	<g>
		<g>
			<path style="fill:#FFFFFF;" d="M331.68,127.94c-3.37,3.71-7.07,7.11-10.9,10.34c-3.84,3.23-7.89,6.2-12.07,9
				c-4.24,2.69-8.64,5.15-13.22,7.23c-4.62,1.98-9.42,3.55-14.36,4.43c2.4-0.74,4.83-1.29,7.14-2.26c2.37-0.78,4.62-1.88,6.9-2.87
				c4.47-2.2,8.82-4.63,12.99-7.36c4.19-2.71,8.2-5.67,12.13-8.75c1.97-1.54,3.89-3.13,5.78-4.76
				C328,131.32,329.85,129.64,331.68,127.94z"/>
		</g>
		<g>
			<path style="fill:#FFFFFF;" d="M328.12,118.25c-2.11,2.01-4.37,3.86-6.67,5.64c-2.3,1.79-4.69,3.47-7.14,5.05
				c-2.47,1.56-4.98,3.06-7.64,4.29c-2.64,1.24-5.38,2.35-8.25,2.89c0.68-0.26,1.36-0.52,2.04-0.76c0.67-0.26,1.33-0.59,1.99-0.88
				c0.67-0.27,1.31-0.62,1.96-0.93c0.65-0.32,1.29-0.64,1.92-1.01c2.54-1.38,5.01-2.88,7.45-4.45c2.45-1.54,4.84-3.19,7.23-4.82
				c1.2-0.82,2.38-1.66,3.56-2.5L328.12,118.25z"/>
		</g>
		<g>
			<path style="fill:#FFFFFF;" d="M316.73,107.52c-0.82,1.29-1.83,2.45-2.95,3.49c-1.11,1.06-2.33,1.99-3.63,2.81
				c-0.64,0.42-1.32,0.77-2,1.14c-0.7,0.31-1.38,0.68-2.11,0.92c-1.42,0.58-2.93,0.91-4.43,1.12c1.41-0.59,2.79-1.15,4.12-1.84
				c1.34-0.66,2.63-1.39,3.88-2.19c1.26-0.78,2.47-1.65,3.66-2.56C314.45,109.5,315.62,108.56,316.73,107.52z"/>
		</g>
	</g>
</g>
<path style="fill:#187077;" d="M177.29,363.87"/>
</svg>
