<?xml version="1.0" encoding="UTF-8"?>
<svg xmlns="http://www.w3.org/2000/svg" xmlns:xlink="http://www.w3.org/1999/xlink" width="97px" height="97px" viewBox="0 0 97 97" version="1.1">
<g id="surface1">
<path style=" stroke:none;fill-rule:nonzero;fill:rgb(78.431373%,76.078431%,91.372549%);fill-opacity:1;" d="M 80.628906 24.15625 C 78.976562 22.105469 77.132812 20.21875 75.121094 18.519531 C 70.816406 15.308594 65.59375 13.5625 60.226562 13.53125 C 46.214844 13.449219 34.859375 24.722656 34.859375 38.738281 L 34.859375 39.019531 C 34.914062 44.441406 32.714844 49.660156 28.679688 53.277344 C 24.144531 57.328125 21.558594 63.121094 21.566406 69.203125 C 21.566406 75.886719 24.636719 81.859375 29.445312 85.78125 C 37.996094 91.910156 47.542969 90.636719 48.785156 90.636719 C 71.355469 90.636719 89.648438 72.339844 89.648438 49.769531 C 89.660156 40.449219 86.476562 31.410156 80.628906 24.15625 Z M 80.628906 24.15625 "/>
<path style=" stroke:none;fill-rule:nonzero;fill:rgb(72.54902%,69.411765%,87.843137%);fill-opacity:1;" d="M 50.351562 61.59375 L 52.171875 59.457031 L 52.210938 59.457031 C 50.148438 63.308594 53.757812 68.464844 60.765625 69.65625 C 64.816406 70.191406 65.46875 72.546875 66.644531 73.84375 C 71.828125 57.386719 57.371094 54.5 55.105469 56.039062 L 55.105469 56.019531 L 56.425781 54.472656 C 57.097656 53.679688 57.003906 52.496094 56.210938 51.820312 C 55.421875 51.148438 54.234375 51.242188 53.5625 52.035156 L 53.074219 52.605469 L 35.117188 35.082031 C 34.945312 36.289062 34.859375 37.511719 34.859375 38.734375 L 34.859375 39.011719 C 34.894531 41.9375 34.261719 44.832031 33.007812 47.472656 L 47.980469 58.582031 L 47.492188 59.15625 C 47.035156 59.664062 46.890625 60.378906 47.113281 61.023438 C 47.339844 61.667969 47.894531 62.140625 48.566406 62.261719 C 49.238281 62.378906 49.921875 62.121094 50.351562 61.59375 Z M 50.351562 61.59375 "/>
<path style=" stroke:none;fill-rule:nonzero;fill:rgb(78.431373%,76.078431%,91.372549%);fill-opacity:1;" d="M 34.683594 41.835938 C 35.976562 39.160156 36.632812 36.222656 36.59375 33.25 L 36.59375 32.964844 C 36.59375 31.5 36.722656 30.035156 36.972656 28.589844 C 35.570312 31.785156 34.851562 35.242188 34.859375 38.734375 L 34.859375 39.011719 C 34.867188 39.957031 34.8125 40.902344 34.683594 41.835938 Z M 34.683594 41.835938 "/>
<path style=" stroke:none;fill-rule:nonzero;fill:rgb(72.54902%,69.411765%,87.843137%);fill-opacity:1;" d="M 50.519531 84.863281 C 49.28125 84.863281 39.738281 86.136719 31.1875 80.007812 C 26.375 76.085938 23.304688 70.121094 23.304688 63.429688 C 23.304688 62.347656 23.386719 61.265625 23.550781 60.195312 C 22.238281 63.015625 21.5625 66.085938 21.566406 69.195312 C 21.566406 75.882812 24.636719 81.855469 29.445312 85.777344 C 37.996094 91.902344 47.542969 90.632812 48.785156 90.632812 C 68.296875 90.632812 84.613281 76.953125 88.675781 58.664062 C 82.78125 73.988281 67.921875 84.863281 50.519531 84.863281 Z M 50.519531 84.863281 "/>
<path style=" stroke:none;fill-rule:nonzero;fill:rgb(51.764706%,70.196078%,12.54902%);fill-opacity:1;" d="M 69.746094 29.550781 C 69.746094 34.050781 66.097656 37.699219 61.597656 37.699219 C 57.097656 37.699219 53.449219 34.050781 53.449219 29.550781 C 53.449219 25.050781 57.097656 21.402344 61.597656 21.402344 C 66.097656 21.402344 69.746094 25.050781 69.746094 29.550781 Z M 69.746094 29.550781 "/>
<path style=" stroke:none;fill-rule:nonzero;fill:rgb(87.058824%,19.607843%,14.901961%);fill-opacity:1;" d="M 83.316406 48.5 C 83.316406 53 79.667969 56.648438 75.167969 56.648438 C 70.667969 56.648438 67.019531 53 67.019531 48.5 C 67.019531 44 70.667969 40.351562 75.167969 40.351562 C 79.667969 40.351562 83.316406 44 83.316406 48.5 Z M 83.316406 48.5 "/>
<path style=" stroke:none;fill-rule:nonzero;fill:rgb(40.392157%,72.941176%,92.156863%);fill-opacity:1;" d="M 71.5 72.199219 C 71.5 76.699219 67.851562 80.347656 63.351562 80.347656 C 58.851562 80.347656 55.203125 76.699219 55.203125 72.199219 C 55.203125 67.699219 58.851562 64.054688 63.351562 64.054688 C 67.851562 64.054688 71.5 67.699219 71.5 72.199219 Z M 71.5 72.199219 "/>
<path style=" stroke:none;fill-rule:nonzero;fill:rgb(95.686275%,76.078431%,24.705882%);fill-opacity:1;" d="M 47.085938 72.199219 C 47.085938 76.699219 43.4375 80.347656 38.9375 80.347656 C 34.4375 80.347656 30.789062 76.699219 30.789062 72.199219 C 30.789062 67.699219 34.4375 64.054688 38.9375 64.054688 C 43.4375 64.054688 47.085938 67.699219 47.085938 72.199219 Z M 47.085938 72.199219 "/>
<path style=" stroke:none;fill-rule:nonzero;fill:rgb(29.411765%,49.019608%,15.294118%);fill-opacity:1;" d="M 64.371094 36.019531 C 61.011719 36.015625 58 33.957031 56.78125 30.832031 C 55.558594 27.703125 56.382812 24.148438 58.851562 21.875 C 55.746094 22.988281 53.617188 25.867188 53.460938 29.167969 C 53.308594 32.464844 55.160156 35.53125 58.152344 36.925781 C 61.144531 38.324219 64.683594 37.777344 67.113281 35.542969 C 66.234375 35.859375 65.304688 36.019531 64.371094 36.019531 Z M 64.371094 36.019531 "/>
<path style=" stroke:none;fill-rule:nonzero;fill:rgb(69.411765%,10.196078%,19.215686%);fill-opacity:1;" d="M 77.941406 54.96875 C 74.582031 54.96875 71.570312 52.910156 70.351562 49.78125 C 69.128906 46.652344 69.953125 43.097656 72.421875 40.824219 C 69.316406 41.9375 67.1875 44.820312 67.03125 48.117188 C 66.878906 51.414062 68.730469 54.480469 71.722656 55.878906 C 74.714844 57.277344 78.253906 56.730469 80.683594 54.496094 C 79.804688 54.808594 78.875 54.96875 77.941406 54.96875 Z M 77.941406 54.96875 "/>
<path style=" stroke:none;fill-rule:nonzero;fill:rgb(27.45098%,63.137255%,97.254902%);fill-opacity:1;" d="M 66.128906 78.667969 C 62.773438 78.667969 59.761719 76.609375 58.539062 73.484375 C 57.320312 70.355469 58.144531 66.800781 60.613281 64.527344 C 57.503906 65.636719 55.371094 68.515625 55.214844 71.816406 C 55.058594 75.117188 56.910156 78.183594 59.90625 79.582031 C 62.898438 80.980469 66.4375 80.433594 68.871094 78.195312 C 67.992188 78.511719 67.0625 78.671875 66.128906 78.667969 Z M 66.128906 78.667969 "/>
<path style=" stroke:none;fill-rule:nonzero;fill:rgb(95.686275%,66.27451%,24.705882%);fill-opacity:1;" d="M 41.710938 78.667969 C 38.351562 78.667969 35.339844 76.609375 34.121094 73.484375 C 32.898438 70.355469 33.722656 66.800781 36.191406 64.527344 C 33.085938 65.640625 30.957031 68.519531 30.800781 71.816406 C 30.648438 75.117188 32.5 78.179688 35.492188 79.578125 C 38.484375 80.976562 42.023438 80.429688 44.453125 78.195312 C 43.574219 78.511719 42.644531 78.671875 41.710938 78.667969 Z M 41.710938 78.667969 "/>
<path style=" stroke:none;fill-rule:nonzero;fill:rgb(100%,100%,100%);fill-opacity:1;" d="M 56.351562 54.671875 L 53.761719 57.703125 C 51.566406 61.570312 55.179688 66.8125 62.253906 68.019531 C 66.304688 68.554688 66.957031 70.910156 68.136719 72.199219 C 73.582031 54.910156 57.34375 52.597656 56.351562 54.671875 Z M 56.351562 54.671875 "/>
<path style=" stroke:none;fill-rule:nonzero;fill:rgb(74.509804%,83.529412%,92.156863%);fill-opacity:1;" d="M 63.105469 64.78125 C 57.730469 63.867188 54.351562 60.617188 54.007812 57.414062 L 53.761719 57.703125 C 51.566406 61.570312 55.179688 66.8125 62.253906 68.019531 C 66.304688 68.554688 66.957031 70.910156 68.136719 72.199219 C 68.476562 71.125 68.75 70.03125 68.949219 68.921875 C 67.796875 67.621094 67.113281 65.3125 63.105469 64.78125 Z M 63.105469 64.78125 "/>
<path style=" stroke:none;fill-rule:nonzero;fill:rgb(30.196078%,29.803922%,47.058824%);fill-opacity:1;" d="M 8.171875 16.578125 C 10.910156 13.363281 15.808594 13.136719 18.832031 16.085938 L 54.566406 50.964844 L 49.46875 56.945312 L 9.378906 27.183594 C 5.980469 24.660156 5.425781 19.796875 8.171875 16.578125 Z M 8.171875 16.578125 "/>
<path style=" stroke:none;fill-rule:nonzero;fill:rgb(19.607843%,19.215686%,31.372549%);fill-opacity:1;" d="M 12.835938 25.390625 C 9.445312 22.875 8.890625 18.003906 11.628906 14.785156 C 11.816406 14.570312 12.015625 14.363281 12.226562 14.171875 C 10.644531 14.5 9.214844 15.347656 8.171875 16.578125 C 5.425781 19.796875 5.980469 24.660156 9.378906 27.183594 L 49.46875 56.945312 L 51.746094 54.273438 Z M 12.835938 25.390625 "/>
<path style=" stroke:none;fill-rule:nonzero;fill:rgb(30.196078%,29.803922%,47.058824%);fill-opacity:1;" d="M 57.910156 52.714844 L 51.820312 59.832031 C 51.148438 60.621094 49.960938 60.710938 49.171875 60.039062 C 48.382812 59.363281 48.292969 58.175781 48.964844 57.386719 L 55.050781 50.273438 C 55.726562 49.484375 56.914062 49.390625 57.699219 50.066406 L 57.703125 50.066406 C 58.488281 50.742188 58.582031 51.925781 57.910156 52.714844 Z M 57.910156 52.714844 "/>
<path style=" stroke:none;fill-rule:nonzero;fill:rgb(19.607843%,19.215686%,31.372549%);fill-opacity:1;" d="M 57.785156 50.253906 L 52.410156 56.5625 C 51.734375 57.351562 50.550781 57.445312 49.757812 56.777344 C 49.730469 56.753906 49.703125 56.726562 49.679688 56.699219 L 48.984375 57.519531 C 48.3125 58.308594 48.40625 59.496094 49.195312 60.167969 C 49.574219 60.492188 50.066406 60.652344 50.5625 60.609375 C 51.058594 60.570312 51.519531 60.335938 51.839844 59.957031 L 57.917969 52.828125 C 58.558594 52.070312 58.503906 50.941406 57.785156 50.253906 Z M 57.785156 50.253906 "/>
<path style=" stroke:none;fill-rule:nonzero;fill:rgb(39.215686%,38.823529%,61.176471%);fill-opacity:1;" d="M 19.351562 20.652344 L 19.351562 20.648438 C 20.398438 19.566406 22.121094 19.539062 23.199219 20.582031 L 35.140625 32.113281 C 36.222656 33.15625 36.253906 34.878906 35.210938 35.960938 L 35.207031 35.964844 C 34.164062 37.046875 32.441406 37.074219 31.359375 36.03125 L 19.417969 24.5 C 18.335938 23.457031 18.304688 21.734375 19.351562 20.652344 Z M 19.351562 20.652344 "/>
<path style=" stroke:none;fill-rule:nonzero;fill:rgb(39.215686%,38.823529%,61.176471%);fill-opacity:1;" d="M 55.621094 50.90625 C 55.910156 51.152344 55.945312 51.585938 55.699219 51.871094 L 53.183594 54.828125 C 52.941406 55.117188 52.507812 55.148438 52.21875 54.90625 C 51.929688 54.660156 51.894531 54.226562 52.140625 53.9375 L 54.652344 50.984375 C 54.898438 50.695312 55.332031 50.660156 55.621094 50.90625 Z M 55.621094 50.90625 "/>
<path style=" stroke:none;fill-rule:nonzero;fill:rgb(98.039216%,83.529412%,39.215686%);fill-opacity:1;" d="M 46.03125 70.25 C 46.03125 72.433594 44.261719 74.203125 42.078125 74.203125 C 39.898438 74.203125 38.128906 72.433594 38.128906 70.25 C 38.128906 68.070312 39.898438 66.300781 42.078125 66.300781 C 44.261719 66.300781 46.03125 68.070312 46.03125 70.25 Z M 46.03125 70.25 "/>
<path style=" stroke:none;fill-rule:nonzero;fill:rgb(74.117647%,86.666667%,16.470588%);fill-opacity:1;" d="M 68.144531 25.910156 C 68.144531 27.71875 66.679688 29.183594 64.871094 29.183594 C 63.0625 29.183594 61.597656 27.71875 61.597656 25.910156 C 61.597656 24.101562 63.0625 22.636719 64.871094 22.636719 C 66.679688 22.636719 68.144531 24.101562 68.144531 25.910156 Z M 68.144531 25.910156 "/>
<path style=" stroke:none;fill-rule:nonzero;fill:rgb(95.686275%,27.058824%,20%);fill-opacity:1;" d="M 82.230469 45.367188 C 82.230469 47.007812 80.902344 48.339844 79.261719 48.339844 C 77.621094 48.339844 76.289062 47.007812 76.289062 45.367188 C 76.289062 43.726562 77.621094 42.394531 79.261719 42.394531 C 80.902344 42.394531 82.230469 43.726562 82.230469 45.367188 Z M 82.230469 45.367188 "/>
<path style=" stroke:none;fill-rule:nonzero;fill:rgb(40.392157%,72.941176%,92.156863%);fill-opacity:1;" d="M 62.253906 68.019531 C 66.304688 68.554688 66.957031 70.910156 68.136719 72.199219 C 69.167969 68.925781 69.417969 66.1875 69.148438 63.914062 C 66.785156 64.003906 64.070312 60.730469 63.152344 63.976562 C 62.5 66.296875 59.3125 66.320312 56.851562 65.964844 C 58.289062 66.921875 60.117188 67.652344 62.253906 68.019531 Z M 62.253906 68.019531 "/>
<path style=" stroke:none;fill-rule:nonzero;fill:rgb(27.45098%,63.137255%,97.254902%);fill-opacity:1;" d="M 63.105469 64.78125 L 62.808594 64.730469 C 61.730469 66.296875 59.007812 66.277344 56.851562 65.964844 C 58.289062 66.921875 60.117188 67.652344 62.253906 68.019531 C 66.304688 68.554688 66.957031 70.910156 68.136719 72.199219 C 68.476562 71.125 68.75 70.03125 68.949219 68.921875 C 67.796875 67.621094 67.113281 65.3125 63.105469 64.78125 Z M 63.105469 64.78125 "/>
<path style=" stroke:none;fill-rule:nonzero;fill:rgb(40.392157%,72.941176%,92.156863%);fill-opacity:1;" d="M 65.945312 60.859375 C 65.945312 60.398438 65.707031 60.027344 65.410156 60.027344 C 65.117188 60.027344 64.875 60.398438 64.875 60.859375 C 64.875 61.320312 65.117188 61.691406 65.410156 61.691406 C 65.707031 61.691406 65.945312 61.320312 65.945312 60.859375 Z M 65.945312 60.859375 "/>
<path style=" stroke:none;fill-rule:nonzero;fill:rgb(40.392157%,72.941176%,92.156863%);fill-opacity:1;" d="M 73.851562 66.949219 C 73.851562 66.113281 73.542969 65.433594 73.15625 65.433594 C 72.773438 65.433594 72.460938 66.113281 72.460938 66.949219 C 72.460938 67.785156 72.773438 68.464844 73.15625 68.464844 C 73.542969 68.464844 73.851562 67.785156 73.851562 66.949219 Z M 73.851562 66.949219 "/>
<path style=" stroke:none;fill-rule:nonzero;fill:rgb(87.45098%,85.490196%,99.215686%);fill-opacity:1;" d="M 80.628906 24.15625 C 78.976562 22.105469 77.132812 20.21875 75.121094 18.523438 C 74.542969 18.089844 73.945312 17.6875 73.332031 17.304688 C 72.757812 18.957031 72.464844 20.695312 72.464844 22.445312 C 72.464844 31.035156 79.382812 38 87.953125 38.082031 C 86.4375 33.007812 83.953125 28.277344 80.628906 24.15625 Z M 80.628906 24.15625 "/>
</g>
</svg>
